<svg width="24" height="25" viewBox="0 0 24 25" fill="none" xmlns="http://www.w3.org/2000/svg">
<path opacity="0.4" d="M13.5661 5.15891V5.37857C12.9773 5.36701 12.3885 5.367 11.7997 5.367V5.17047C11.7997 4.37279 11.1284 3.7254 10.3277 3.7254H9.16181C7.83109 3.7254 6.74767 2.66183 6.74767 1.36704C6.74767 0.89306 7.14807 0.5 7.63089 0.5C8.1255 0.5 8.51411 0.89306 8.51411 1.36704C8.51411 1.71386 8.80852 1.99131 9.16181 1.99131H10.3277C12.1059 2.00288 13.5543 3.42483 13.5661 5.15891" fill="#3D3D3E"/>
<path fill-rule="evenodd" clip-rule="evenodd" d="M15.7968 5.39921C16.1749 5.40439 16.5539 5.40959 16.9342 5.41348C21.0206 5.41348 24 8.32675 24 12.3498V17.5174C24 21.5405 21.0206 24.4538 16.9342 24.4538C15.2974 24.4884 13.6605 24.5 12.0118 24.5C10.3631 24.5 8.70265 24.4884 7.06575 24.4538C2.97939 24.4538 0 21.5405 0 17.5174V12.3498C0 8.32675 2.97939 5.41348 7.07753 5.41348C8.62022 5.39036 10.1982 5.36724 11.7998 5.36724C12.3886 5.36724 12.9774 5.36724 13.5662 5.3788C14.3086 5.3788 15.051 5.38898 15.7968 5.39921ZM10.6222 15.7949H9.38567V17.0203C9.38567 17.4943 8.98528 17.8873 8.50245 17.8873C8.00785 17.8873 7.61923 17.4943 7.61923 17.0203V15.7949H6.37095C5.88812 15.7949 5.48773 15.4134 5.48773 14.9278C5.48773 14.4539 5.88812 14.0608 6.37095 14.0608H7.61923V12.8469C7.61923 12.3729 8.00785 11.9799 8.50245 11.9799C8.98528 11.9799 9.38567 12.3729 9.38567 12.8469V14.0608H10.6222C11.105 14.0608 11.5054 14.4539 11.5054 14.9278C11.5054 15.4134 11.105 15.7949 10.6222 15.7949ZM15.6271 13.8411H15.7448C16.2277 13.8411 16.6281 13.4596 16.6281 12.9741C16.6281 12.5001 16.2277 12.1071 15.7448 12.1071H15.6271C15.1325 12.1071 14.7439 12.5001 14.7439 12.9741C14.7439 13.4596 15.1325 13.8411 15.6271 13.8411ZM17.6408 17.818H17.7586C18.2414 17.818 18.6418 17.4365 18.6418 16.9509C18.6418 16.477 18.2414 16.0839 17.7586 16.0839H17.6408C17.1462 16.0839 16.7576 16.477 16.7576 16.9509C16.7576 17.4365 17.1462 17.818 17.6408 17.818Z" fill="#3D3D3E"/>
</svg>
