<svg width="60" height="48" viewBox="0 0 60 48" fill="none" xmlns="http://www.w3.org/2000/svg">
<path d="M5.99967 0.0266113H53.9997C56.933 0.0266113 59.333 2.42661 59.333 5.35995V15.9999H53.9997V5.30661H5.99967V42.7199H53.9997V31.9999H59.333V42.6933C59.333 45.6266 56.933 47.9733 53.9997 47.9733H5.99967C3.06634 47.9733 0.66634 45.6266 0.66634 42.6933V5.35995C0.66634 3.94546 1.22824 2.5889 2.22844 1.58871C3.22863 0.588514 4.58519 0.0266113 5.99967 0.0266113ZM32.6663 34.6666L21.9997 23.9999L32.6663 13.3333V21.3333H59.333V26.6666H32.6663V34.6666ZM5.99967 0.0266113H53.9997C56.933 0.0266113 59.333 2.42661 59.333 5.35995V15.9999H53.9997V5.30661H5.99967V42.7199H53.9997V31.9999H59.333V42.6933C59.333 45.6266 56.933 47.9733 53.9997 47.9733H5.99967C3.06634 47.9733 0.66634 45.6266 0.66634 42.6933V5.35995C0.66634 3.94546 1.22824 2.5889 2.22844 1.58871C3.22863 0.588514 4.58519 0.0266113 5.99967 0.0266113ZM32.6663 34.6666L21.9997 23.9999L32.6663 13.3333V21.3333H59.333V26.6666H32.6663V34.6666Z" fill="white"/>
</svg>
