<svg width="20" height="20" viewBox="0 0 20 20" fill="none" xmlns="http://www.w3.org/2000/svg">
<g clip-path="url(#clip0_33_18915)">
<path d="M19.6575 18.5509L17.9058 16.8C18.2748 16.2368 18.5012 15.5921 18.5653 14.9218C18.6294 14.2514 18.5293 13.5756 18.2738 12.9526C18.0182 12.3296 17.6148 11.7781 17.0985 11.3459C16.5821 10.9137 15.9683 10.6136 15.31 10.4717L15.2825 10.4667V7.09755V7.07588C15.2826 6.87927 15.2139 6.6888 15.0883 6.53755L15.0892 6.53921V6.53505C15.0734 6.51593 15.0567 6.49758 15.0392 6.48005L15.0325 6.47255L15.01 6.45005L8.81 0.250047C8.79275 0.232797 8.77467 0.216389 8.75583 0.200881L8.73417 0.185881C8.72063 0.174863 8.70674 0.164301 8.6925 0.154214L8.67167 0.139214L8.62667 0.110881L8.6075 0.100881C8.58861 0.0897694 8.56778 0.0794916 8.545 0.0700472L8.51833 0.0592139L8.47583 0.0442139L8.44583 0.0350472L8.3975 0.0225472L8.37417 0.0175472C8.35049 0.0126552 8.32657 0.00903886 8.3025 0.00671387H0.845833C0.622205 0.00758644 0.407948 0.0966386 0.249584 0.254535C0.0912205 0.41243 0.00153452 0.626423 0 0.850047L0 17.8309C0.000217469 18.0555 0.0892959 18.2708 0.247778 18.4299C0.40626 18.589 0.621266 18.6789 0.845833 18.68H14.4375C15.2501 18.6815 16.0447 18.4416 16.7208 17.9909L16.7058 18L18.4575 19.7517C18.619 19.8986 18.8309 19.9777 19.0491 19.9725C19.2674 19.9673 19.4753 19.8783 19.6296 19.7238C19.7839 19.5694 19.8728 19.3615 19.8779 19.1432C19.8829 18.9249 19.8037 18.7131 19.6567 18.5517L19.6575 18.5525V18.5509ZM16.8867 14.5284C16.8867 14.8505 16.8233 15.1695 16.7001 15.4671C16.5769 15.7647 16.3963 16.0352 16.1685 16.263C15.9408 16.4908 15.6704 16.6715 15.3728 16.7948C15.0752 16.9182 14.7563 16.9817 14.4342 16.9817C14.112 16.9818 13.7931 16.9184 13.4954 16.7952C13.1978 16.6719 12.9274 16.4913 12.6996 16.2636C12.4718 16.0358 12.291 15.7655 12.1677 15.4679C12.0444 15.1703 11.9809 14.8513 11.9808 14.5292C11.9806 13.8787 12.2388 13.2547 12.6987 12.7945C13.1585 12.3343 13.7824 12.0757 14.4329 12.0755C15.0835 12.0752 15.7075 12.3335 16.1676 12.7933C16.6278 13.2532 16.8864 13.877 16.8867 14.5275V14.5284ZM9.05667 2.89838L12.3842 6.22671H9.05667V2.89838ZM1.69833 1.69838H7.35917V7.07588C7.35917 7.54505 7.73917 7.92505 8.20833 7.92505H13.5858V10.4667C11.6875 10.8725 10.2842 12.5359 10.2842 14.5275C10.2842 15.4517 10.5858 16.305 11.0967 16.9942L11.0883 16.9834H1.6975L1.69833 1.69838Z" fill="#1180BF"/>
</g>
<defs>
<clipPath id="clip0_33_18915">
<rect width="20" height="20" fill="white"/>
</clipPath>
</defs>
</svg>
