<svg width="60" height="48" viewBox="0 0 60 48" fill="none" xmlns="http://www.w3.org/2000/svg">
<path d="M53.9998 0.0266113H5.99984C3.0665 0.0266113 0.666504 2.42661 0.666504 5.35995V15.9999H5.99984V5.30661H53.9998V42.7199H5.99984V31.9999H0.666504V42.6933C0.666504 45.6266 3.0665 47.9733 5.99984 47.9733H53.9998C56.9332 47.9733 59.3332 45.6266 59.3332 42.6933V5.35995C59.3332 3.94546 58.7713 2.5889 57.7711 1.58871C56.7709 0.588514 55.4143 0.0266113 53.9998 0.0266113V0.0266113ZM27.3332 34.6666L37.9998 23.9999L27.3332 13.3333V21.3333H0.666504V26.6666H27.3332V34.6666ZM53.9998 0.0266113H5.99984C3.0665 0.0266113 0.666504 2.42661 0.666504 5.35995V15.9999H5.99984V5.30661H53.9998V42.7199H5.99984V31.9999H0.666504V42.6933C0.666504 45.6266 3.0665 47.9733 5.99984 47.9733H53.9998C56.9332 47.9733 59.3332 45.6266 59.3332 42.6933V5.35995C59.3332 3.94546 58.7713 2.5889 57.7711 1.58871C56.7709 0.588514 55.4143 0.0266113 53.9998 0.0266113V0.0266113ZM27.3332 34.6666L37.9998 23.9999L27.3332 13.3333V21.3333H0.666504V26.6666H27.3332V34.6666Z" fill="white"/>
</svg>
