<svg width="64" height="64" viewBox="0 0 64 64" fill="none" xmlns="http://www.w3.org/2000/svg">
<path d="M13.333 18.6666H18.6663V45.3333H13.333V18.6666ZM37.333 18.6666H39.9997V45.3333H37.333V18.6666ZM26.6663 18.6666H34.6663V45.3333H26.6663V18.6666ZM21.333 18.6666H23.9997V45.3333H21.333V18.6666ZM42.6663 18.6666H50.6663V45.3333H42.6663V18.6666Z" fill="white"/>
<path d="M10.6663 13.3333H21.333V8H10.6663C7.72501 8 5.33301 10.392 5.33301 13.3333V24H10.6663V13.3333ZM10.6663 56H21.333V50.6667H10.6663V40H5.33301V50.6667C5.33301 53.608 7.72501 56 10.6663 56ZM53.333 8H42.6663V13.3333H53.333V24H58.6663V13.3333C58.6663 10.392 56.2743 8 53.333 8ZM53.333 50.6667H42.6663V56H53.333C56.2743 56 58.6663 53.608 58.6663 50.6667V40H53.333V50.6667Z" fill="white"/>
</svg>
