<svg width="16" height="16" viewBox="0 0 16 16" fill="none" xmlns="http://www.w3.org/2000/svg">
<path d="M0.5 8C0.5 7.01509 0.693993 6.03982 1.0709 5.12987C1.44781 4.21993 2.00026 3.39314 2.6967 2.6967C3.39314 2.00026 4.21993 1.44781 5.12987 1.0709C6.03982 0.693993 7.01509 0.5 8 0.5C8.98491 0.5 9.96018 0.693993 10.8701 1.0709C11.7801 1.44781 12.6069 2.00026 13.3033 2.6967C13.9997 3.39314 14.5522 4.21993 14.9291 5.12987C15.306 6.03982 15.5 7.01509 15.5 8C15.5 9.98912 14.7098 11.8968 13.3033 13.3033C11.8968 14.7098 9.98912 15.5 8 15.5C6.01088 15.5 4.10322 14.7098 2.6967 13.3033C1.29018 11.8968 0.5 9.98912 0.5 8ZM8 4.25C7.83424 4.25 7.67527 4.31585 7.55806 4.43306C7.44085 4.55027 7.375 4.70924 7.375 4.875V7.375H4.875C4.70924 7.375 4.55027 7.44085 4.43306 7.55806C4.31585 7.67527 4.25 7.83424 4.25 8C4.25 8.16576 4.31585 8.32473 4.43306 8.44194C4.55027 8.55915 4.70924 8.625 4.875 8.625H7.375V11.125C7.375 11.2908 7.44085 11.4497 7.55806 11.5669C7.67527 11.6842 7.83424 11.75 8 11.75C8.16576 11.75 8.32473 11.6842 8.44194 11.5669C8.55915 11.4497 8.625 11.2908 8.625 11.125V8.625H11.125C11.2908 8.625 11.4497 8.55915 11.5669 8.44194C11.6842 8.32473 11.75 8.16576 11.75 8C11.75 7.83424 11.6842 7.67527 11.5669 7.55806C11.4497 7.44085 11.2908 7.375 11.125 7.375H8.625V4.875C8.625 4.70924 8.55915 4.55027 8.44194 4.43306C8.32473 4.31585 8.16576 4.25 8 4.25Z" fill="white"/>
</svg>
