<svg width="32" height="33" viewBox="0 0 32 33" fill="none" xmlns="http://www.w3.org/2000/svg">
<path d="M15.9996 2.27783C13.1867 2.27783 10.437 3.11195 8.09813 4.67471C5.7593 6.23747 3.9364 8.45867 2.85995 11.0574C1.78351 13.6562 1.50186 16.5158 2.05063 19.2747C2.59939 22.0335 3.95393 24.5677 5.94294 26.5567C7.93196 28.5457 10.4661 29.9002 13.225 30.449C15.9838 30.9978 18.8434 30.7161 21.4422 29.6397C24.041 28.5632 26.2622 26.7403 27.8249 24.4015C29.3877 22.0627 30.2218 19.3129 30.2218 16.5001C30.2218 12.7281 28.7234 9.11061 26.0562 6.44342C23.389 3.77624 19.7715 2.27783 15.9996 2.27783V2.27783ZM25.2885 11.7267L13.6085 23.3978L6.71068 16.5001C6.47494 16.2643 6.34249 15.9446 6.34249 15.6112C6.34249 15.2778 6.47494 14.958 6.71068 14.7223C6.94643 14.4865 7.26617 14.3541 7.59957 14.3541C7.93297 14.3541 8.25271 14.4865 8.48846 14.7223L13.6262 19.8601L23.5285 9.96672C23.6452 9.84999 23.7838 9.75739 23.9363 9.69422C24.0888 9.63105 24.2523 9.59853 24.4174 9.59853C24.5824 9.59853 24.7459 9.63105 24.8984 9.69422C25.0509 9.75739 25.1895 9.84999 25.3062 9.96672C25.423 10.0835 25.5156 10.222 25.5787 10.3745C25.6419 10.5271 25.6744 10.6905 25.6744 10.8556C25.6744 11.0207 25.6419 11.1842 25.5787 11.3367C25.5156 11.4892 25.423 11.6278 25.3062 11.7445L25.2885 11.7267Z" fill="#1180BF"/>
</svg>
