<svg width="20" height="21" viewBox="0 0 20 21" fill="none" xmlns="http://www.w3.org/2000/svg">
<path opacity="0.4" d="M11.3051 4.38243V4.56547C10.8144 4.55584 10.3237 4.55584 9.83307 4.55584V4.39206C9.83307 3.72733 9.2737 3.18784 8.60638 3.18784H7.63484C6.52591 3.18784 5.62306 2.30152 5.62306 1.22254C5.62306 0.82755 5.95672 0.5 6.35908 0.5C6.77125 0.5 7.09509 0.82755 7.09509 1.22254C7.09509 1.51155 7.34043 1.74276 7.63484 1.74276H8.60638C10.0882 1.7524 11.2953 2.93736 11.3051 4.38243" fill="white"/>
<path fill-rule="evenodd" clip-rule="evenodd" d="M13.164 4.58267C13.4791 4.58699 13.7949 4.59132 14.1119 4.59457C17.5172 4.59457 20 7.02229 20 10.3749V14.6812C20 18.0337 17.5172 20.4615 14.1119 20.4615C12.7478 20.4904 11.3837 20.5 10.0098 20.5C8.63592 20.5 7.25221 20.4904 5.88813 20.4615C2.48283 20.4615 0 18.0337 0 14.6812V10.3749C0 7.02229 2.48283 4.59457 5.89794 4.59457C7.18351 4.5753 8.49853 4.55603 9.83317 4.55603C10.3238 4.55603 10.8145 4.55603 11.3052 4.56566C11.9238 4.56566 12.5425 4.57415 13.164 4.58267ZM8.85182 13.2457H7.82139V14.2669C7.82139 14.6619 7.48773 14.9895 7.08538 14.9895C6.67321 14.9895 6.34936 14.6619 6.34936 14.2669V13.2457H5.30913C4.90677 13.2457 4.57311 12.9278 4.57311 12.5232C4.57311 12.1282 4.90677 11.8007 5.30913 11.8007H6.34936V10.7891C6.34936 10.3941 6.67321 10.0666 7.08538 10.0666C7.48773 10.0666 7.82139 10.3941 7.82139 10.7891V11.8007H8.85182C9.25417 11.8007 9.58783 12.1282 9.58783 12.5232C9.58783 12.9278 9.25417 13.2457 8.85182 13.2457ZM13.0226 11.6176H13.1207C13.5231 11.6176 13.8567 11.2997 13.8567 10.8951C13.8567 10.5001 13.5231 10.1725 13.1207 10.1725H13.0226C12.6104 10.1725 12.2866 10.5001 12.2866 10.8951C12.2866 11.2997 12.6104 11.6176 13.0226 11.6176ZM14.7007 14.9317H14.7988C15.2012 14.9317 15.5348 14.6137 15.5348 14.2091C15.5348 13.8141 15.2012 13.4866 14.7988 13.4866H14.7007C14.2885 13.4866 13.9647 13.8141 13.9647 14.2091C13.9647 14.6137 14.2885 14.9317 14.7007 14.9317Z" fill="white"/>
</svg>
