<svg width="56" height="52" viewBox="0 0 56 52" fill="none" xmlns="http://www.w3.org/2000/svg">
<path d="M4 20V48H52V20H4ZM2 16H54C54.5304 16 55.0391 16.2107 55.4142 16.5858C55.7893 16.9609 56 17.4696 56 18V50C56 50.5304 55.7893 51.0391 55.4142 51.4142C55.0391 51.7893 54.5304 52 54 52H2C1.46957 52 0.960859 51.7893 0.585786 51.4142C0.210714 51.0391 0 50.5304 0 50V18C0 17.4696 0.210714 16.9609 0.585786 16.5858C0.960859 16.2107 1.46957 16 2 16ZM6 8H50V12H6V8ZM12 0H44V4H12V0Z" fill="white"/>
</svg>
